<svg width="118" height="118" fill="none" xmlns="http://www.w3.org/2000/svg">
  <path d="M68 9a9 9 0 11-18 0 9 9 0 0118 0zM34 24a9 9 0 11-18 0 9 9 0 0118 0zM18 59a9 9 0 11-18 0 9 9 0 0118 0zM34 94a9 9 0 11-18 0 9 9 0 0118 0zM102 24a9 9 0 11-18 0 9 9 0 0118 0zM118 59a9 9 0 01-9 9 9 9 0 01-9-9 9 9 0 019-9 9 9 0 019 9zM102 94a9 9 0 11-18 0 9 9 0 0118 0zM68 109a9 9 0 01-9 9 9 9 0 01-9-9 9 9 0 019-9 9 9 0 019 9z
M95 59c0 19.33-15.67 35-35 35S25 78.33 25 59s15.67-35 35-35 35 15.67 35 35z"  fill="#C4C4C4"/>
</svg>
