<svg width="208" height="208" fill="none" xmlns="http://www.w3.org/2000/svg"><g filter="url(#filter0_d)"><path d="M149.17 100c0 29.644-22.193 53.339-49.17 53.339S50.83 129.644 50.83 100 73.023 46.661 100 46.661 149.17 70.356 149.17 100zm21.218-64.543c0 8.48-6.482 15.122-14.199 15.122-7.718 0-14.2-6.642-14.2-15.123 0-8.48 6.482-15.122 14.2-15.122 7.717 0 14.199 6.642 14.199 15.122zM197.5 100c0 8.48-6.482 15.122-14.199 15.122-7.718 0-14.2-6.642-14.2-15.122s6.482-15.122 14.2-15.122c7.717 0 14.199 6.642 14.199 15.122zm-83.301-82.378c0 8.48-6.482 15.122-14.199 15.122s-14.2-6.642-14.2-15.122S92.284 2.5 100 2.5s14.199 6.642 14.199 15.122zM54.475 35.456c0 8.48-6.483 15.123-14.2 15.123s-14.2-6.642-14.2-15.123c0-8.48 6.483-15.122 14.2-15.122s14.2 6.642 14.2 15.122zM30.898 100c0 8.48-6.483 15.122-14.2 15.122S2.5 108.48 2.5 100s6.482-15.122 14.2-15.122c7.716 0 14.199 6.642 14.199 15.122zm23.575 64.544c0 8.48-6.482 15.122-14.199 15.122s-14.2-6.642-14.2-15.122c0-8.481 6.483-15.123 14.2-15.123s14.2 6.642 14.2 15.123zm59.725 17.834c0 8.48-6.482 15.122-14.199 15.122s-14.2-6.642-14.2-15.122 6.483-15.122 14.2-15.122 14.199 6.642 14.199 15.122zm56.189-17.834c0 8.48-6.482 15.122-14.199 15.122-7.718 0-14.2-6.642-14.2-15.122 0-8.481 6.482-15.123 14.2-15.123 7.717 0 14.199 6.642 14.199 15.123z" stroke="#FFFBFB" stroke-width="5"/></g><defs><filter id="filter0_d" x="0" y="0" width="208" height="208" filterUnits="userSpaceOnUse" color-interpolation-filters="sRGB"><feFlood flood-opacity="0" result="BackgroundImageFix"/><feColorMatrix in="SourceAlpha" values="0 0 0 0 0 0 0 0 0 0 0 0 0 0 0 0 0 0 127 0"/><feOffset dx="4" dy="4"/><feGaussianBlur stdDeviation="2"/><feColorMatrix values="0 0 0 0 0 0 0 0 0 0 0 0 0 0 0 0 0 0 0.25 0"/><feBlend in2="BackgroundImageFix" result="effect1_dropShadow"/><feBlend in="SourceGraphic" in2="effect1_dropShadow" result="shape"/></filter></defs></svg>